<svg width="96.00000000000001" height="96.00000000000001" xmlns="http://www.w3.org/2000/svg">

 <g>
  <title>background</title>
  <rect fill="none" id="canvas_background" height="402" width="582" y="-1" x="-1"/>
 </g>
 <g>
  <title>Layer 1</title>
  <path fill="#ffffff" id="svg_1" d="m52,84l0,-62.344l21.457,21.456c1.561,1.562 4.095,1.562 5.656,0.001c1.562,-1.562 1.562,-4.096 0,-5.658l-28.284,-28.283l0,0c-0.186,-0.186 -0.391,-0.352 -0.609,-0.498c-0.101,-0.067 -0.21,-0.114 -0.315,-0.172c-0.124,-0.066 -0.242,-0.142 -0.373,-0.195c-0.135,-0.057 -0.275,-0.089 -0.415,-0.129c-0.111,-0.033 -0.216,-0.076 -0.331,-0.099c-0.259,-0.052 -0.522,-0.079 -0.785,-0.079l0,0c-0.003,0 -0.006,0.001 -0.009,0.001c-0.259,0.001 -0.519,0.027 -0.774,0.078c-0.12,0.024 -0.231,0.069 -0.349,0.104c-0.133,0.039 -0.268,0.069 -0.397,0.123c-0.139,0.058 -0.265,0.136 -0.396,0.208c-0.098,0.054 -0.198,0.097 -0.292,0.159c-0.221,0.146 -0.427,0.314 -0.614,0.501l-28.281,28.282c-1.562,1.562 -1.562,4.095 -0.001,5.657c1.562,1.562 4.094,1.562 5.658,0l21.454,-21.456l0,62.343c0,2.209 1.791,4 4,4s4,-1.791 4,-4z"/>
 </g>
</svg>